<svg width="32" height="32" viewBox="0 0 32 32" fill="none" xmlns="http://www.w3.org/2000/svg">
<path d="M29.3327 16H26.026C25.4433 15.9988 24.8762 16.1884 24.4115 16.54C23.9468 16.8915 23.61 17.3856 23.4527 17.9467L20.3193 29.0933C20.2992 29.1626 20.257 29.2234 20.1993 29.2667C20.1417 29.3099 20.0715 29.3333 19.9993 29.3333C19.9272 29.3333 19.857 29.3099 19.7993 29.2667C19.7417 29.2234 19.6995 29.1626 19.6793 29.0933L12.3193 2.90667C12.2992 2.83743 12.257 2.77661 12.1993 2.73333C12.1417 2.69006 12.0715 2.66667 11.9993 2.66667C11.9272 2.66667 11.857 2.69006 11.7993 2.73333C11.7417 2.77661 11.6995 2.83743 11.6793 2.90667L8.54602 14.0533C8.3893 14.6122 8.05452 15.1047 7.5925 15.456C7.13048 15.8073 6.56644 15.9983 5.98602 16H2.66602" stroke="#5CB7B1" stroke-width="3.33333" stroke-linecap="round" stroke-linejoin="round"/>
</svg>
